<?xml version="1.0" encoding="iso-8859-1"?>
<!-- Generator: Adobe Illustrator 19.0.0, SVG Export Plug-In . SVG Version: 6.00 Build 0)  -->
<svg version="1.1" id="Layer_1" xmlns="http://www.w3.org/2000/svg" xmlns:xlink="http://www.w3.org/1999/xlink" x="0px" y="0px"
	 viewBox="0 0 512 512" style="enable-background:new 0 0 512 512;" xml:space="preserve">
<path style="fill:#998373;" d="M82.441,503.322h347.119V0H82.441V503.322z"/>
<path style="fill:#514439;" d="M117.153,503.322h277.695V34.712H117.153V503.322z"/>
<path style="fill:#998373;" d="M325.424,286.373h34.712v-34.712h-34.712V286.373z"/>
<path style="fill:#E8EDEE;" d="M325.424,277.695H299.39c-5.207,0-8.678-3.471-8.678-8.678c0-5.207,3.471-8.678,8.678-8.678h26.034
	c5.207,0,8.678,3.471,8.678,8.678C334.102,274.224,330.63,277.695,325.424,277.695"/>
<path style="fill:#DBD6D2;" d="M490.305,512H21.695c-5.207,0-8.678-3.471-8.678-8.678c0-5.207,3.471-8.678,8.678-8.678h468.61
	c5.207,0,8.678,3.471,8.678,8.678C498.983,508.529,495.512,512,490.305,512"/>
<g>
</g>
<g>
</g>
<g>
</g>
<g>
</g>
<g>
</g>
<g>
</g>
<g>
</g>
<g>
</g>
<g>
</g>
<g>
</g>
<g>
</g>
<g>
</g>
<g>
</g>
<g>
</g>
<g>
</g>
</svg>
