<?xml version="1.0" encoding="iso-8859-1"?>
<!-- Generator: Adobe Illustrator 19.0.0, SVG Export Plug-In . SVG Version: 6.00 Build 0)  -->
<svg version="1.1" id="Layer_1" xmlns="http://www.w3.org/2000/svg" xmlns:xlink="http://www.w3.org/1999/xlink" x="0px" y="0px"
	 viewBox="0 0 512.002 512.002" style="enable-background:new 0 0 512.002 512.002;" xml:space="preserve">
<g>
	<path style="fill:#787485;" d="M103.941,463.986c-4.418,0-8-3.582-8-8v-327.99c0-4.418,3.582-8,8-8s8,3.582,8,8v327.99
		C111.94,460.404,108.359,463.986,103.941,463.986z"/>
	<path style="fill:#787485;" d="M151.939,175.995v-47.999c0-4.418-3.582-8-8-8c-4.418,0-8,3.582-8,8v47.999c-4.418,0-8,3.582-8,8
		s3.582,8,8,8v15.999c0,4.418,3.582,8,8,8c4.418,0,8-3.582,8-8v-15.999c4.418,0,8-3.582,8-8S156.357,175.995,151.939,175.995z"/>
</g>
<path style="fill:#38C7C2;" d="M191.528,125.466L151.529,5.47C150.44,2.203,147.383,0,143.939,0H71.942
	c-3.271,0-6.213,1.992-7.428,5.029L16.515,125.025c-2.069,5.17,1.87,10.971,7.428,10.971h159.995
	C189.305,135.996,193.225,130.562,191.528,125.466z"/>
<path style="fill:#00B5B8;" d="M40.502,125.025L88.5,5.029C89.715,1.992,92.656,0,95.928,0H71.942c-3.271,0-6.213,1.992-7.428,5.029
	L16.515,125.025c-2.069,5.169,1.87,10.971,7.428,10.971h23.986C42.371,135.996,38.433,130.194,40.502,125.025z"/>
<g>
	<path style="fill:#9693A0;" d="M158.244,435.063c-1.516-1.942-3.842-3.077-6.306-3.077H103.94c-4.418,0-8,3.582-8,8v63.998
		c0,4.418,3.582,8,8,8h31.999c3.671,0,6.871-2.499,7.761-6.06l15.999-63.998C160.297,439.536,159.76,437.005,158.244,435.063z"/>
	<path style="fill:#9693A0;" d="M495.912,442.456c0.097-0.692,0.279-2.082-0.078-3.726c-0.756-3.51-3.817-6.97-8.894-6.755
		c-0.619,0.014-1.24,0.014-1.854,0.012h-45.158c-2.464,0-4.789,1.135-6.306,3.077c-1.516,1.942-2.053,4.474-1.455,6.863
		l14.733,58.933c0.357,1.43,0.662,2.734,0.943,4.034c1.029,4.902,4.751,6.413,6.305,6.835c0.975,0.265,3.693,0.294,4.046,0.263
		l29.734-0.008c4.418,0,8-3.582,8-8v-59.282c0-0.349-0.005-0.7-0.011-1.051C495.911,443.252,495.899,442.851,495.912,442.456z"/>
</g>
<path style="fill:#E6608D;" d="M375.932,183.994H215.937c-22.055,0-39.999,17.943-39.999,39.999v215.993c0,4.418,3.582,8,8,8
	h223.993c4.418,0,8-3.582,8-8V223.993C415.931,201.938,397.986,183.994,375.932,183.994z"/>
<path style="fill:#D4506F;" d="M375.932,327.99H215.937c-22.055,0-39.999,17.943-39.999,39.999v55.998c0,4.418,3.582,8,8,8h223.993
	c4.418,0,8-3.582,8-8v-55.998C415.931,345.933,397.986,327.99,375.932,327.99z"/>
<path style="fill:#E6608D;" d="M375.932,343.989H215.937c-22.055,0-39.999,17.943-39.999,39.999v55.998c0,4.418,3.582,8,8,8h223.993
	c4.418,0,8-3.582,8-8v-55.998C415.931,361.933,397.986,343.989,375.932,343.989z"/>
<g>
	<path style="fill:#D4506F;" d="M455.93,263.992H439.93c-22.055,0-39.999,17.943-39.999,39.999v135.996c0,4.418,3.582,8,8,8h79.997
		c4.418,0,8-3.582,8-8V303.991C495.928,281.935,477.984,263.992,455.93,263.992z"/>
	<path style="fill:#D4506F;" d="M151.939,263.992H135.94c-22.055,0-39.999,17.943-39.999,39.999v135.996c0,4.418,3.582,8,8,8h79.998
		c4.418,0,8-3.582,8-8V303.991C191.938,281.935,173.993,263.992,151.939,263.992z"/>
	<path style="fill:#D4506F;" d="M240.936,263.992h-1c-4.418,0-8-3.582-8-8c0-4.418,3.582-8,8-8h1c4.418,0,8,3.582,8,8
		C248.936,260.41,245.354,263.992,240.936,263.992z"/>
	<path style="fill:#D4506F;" d="M352.933,263.992h-1c-4.418,0-8-3.582-8-8c0-4.418,3.582-8,8-8h1c4.418,0,8,3.582,8,8
		C360.933,260.41,357.351,263.992,352.933,263.992z"/>
	<path style="fill:#D4506F;" d="M352.933,311.99h-1c-4.418,0-8-3.582-8-8c0-4.418,3.582-8,8-8h1c4.418,0,8,3.582,8,8
		C360.933,308.408,357.351,311.99,352.933,311.99z"/>
	<path style="fill:#D4506F;" d="M240.936,311.99h-1c-4.418,0-8-3.582-8-8c0-4.418,3.582-8,8-8h1c4.418,0,8,3.582,8,8
		C248.936,308.408,245.354,311.99,240.936,311.99z"/>
</g>
<g>
</g>
<g>
</g>
<g>
</g>
<g>
</g>
<g>
</g>
<g>
</g>
<g>
</g>
<g>
</g>
<g>
</g>
<g>
</g>
<g>
</g>
<g>
</g>
<g>
</g>
<g>
</g>
<g>
</g>
</svg>
