<?xml version="1.0" standalone="no"?>
<!DOCTYPE svg PUBLIC "-//W3C//DTD SVG 20010904//EN"
 "http://www.w3.org/TR/2001/REC-SVG-20010904/DTD/svg10.dtd">
<svg version="1.0" xmlns="http://www.w3.org/2000/svg"
 width="200.000000pt" height="200.000000pt" viewBox="0 0 200.000000 200.000000"
 preserveAspectRatio="xMidYMid meet">
<metadata>
Created by potrace 1.11, written by Peter Selinger 2001-2013
</metadata>
<g transform="translate(0.000000,200.000000) scale(0.100000,-0.100000)"
fill="#000000" stroke="none">
<path d="M1000 1360 c0 -13 5 -18 15 -14 12 5 13 10 4 20 -15 19 -19 18 -19
-6z"/>
<path d="M842 1359 c2 -6 8 -10 13 -10 5 0 11 4 13 10 2 6 -4 11 -13 11 -9 0
-15 -5 -13 -11z"/>
<path d="M880 1360 c0 -5 9 -10 20 -10 11 0 20 5 20 10 0 6 -9 10 -20 10 -11
0 -20 -4 -20 -10z"/>
<path d="M940 1355 c0 -9 6 -12 15 -9 8 4 15 10 15 15 0 5 -7 9 -15 9 -8 0
-15 -7 -15 -15z"/>
<path d="M1050 1354 c0 -9 5 -14 12 -12 18 6 21 28 4 28 -9 0 -16 -7 -16 -16z"/>
<path d="M842 1308 c6 -18 28 -21 28 -4 0 9 -7 16 -16 16 -9 0 -14 -5 -12 -12z"/>
<path d="M885 1311 c-7 -12 12 -24 25 -16 11 7 4 25 -10 25 -5 0 -11 -4 -15
-9z"/>
<path d="M940 1305 c0 -9 5 -15 11 -13 6 2 11 8 11 13 0 5 -5 11 -11 13 -6 2
-11 -4 -11 -13z"/>
<path d="M995 1311 c-7 -12 12 -24 25 -16 11 7 4 25 -10 25 -5 0 -11 -4 -15
-9z"/>
<path d="M1050 1305 c0 -9 5 -15 11 -13 6 2 11 8 11 13 0 5 -5 11 -11 13 -6 2
-11 -4 -11 -13z"/>
<path d="M847 1263 c-12 -11 -8 -23 8 -23 8 0 15 7 15 15 0 16 -12 20 -23 8z"/>
<path d="M1050 1256 c0 -9 7 -16 16 -16 17 0 14 22 -4 28 -7 2 -12 -3 -12 -12z"/>
<path d="M846 1213 c-11 -11 -6 -23 9 -23 8 0 15 4 15 9 0 13 -16 22 -24 14z"/>
<path d="M1056 1213 c-11 -11 -6 -23 9 -23 8 0 15 4 15 9 0 13 -16 22 -24 14z"/>
<path d="M845 1160 c-4 -6 -3 -16 3 -22 6 -6 12 -6 17 2 4 6 3 16 -3 22 -6 6
-12 6 -17 -2z"/>
<path d="M1052 1149 c2 -6 8 -10 13 -10 5 0 11 4 13 10 2 6 -4 11 -13 11 -9 0
-15 -5 -13 -11z"/>
<path d="M777 1088 c-6 -18 11 -48 28 -48 17 0 34 30 28 48 -3 6 -15 12 -28
12 -13 0 -25 -6 -28 -12z"/>
<path d="M987 1094 c-12 -13 -8 -42 8 -48 25 -9 46 5 43 28 -3 21 -37 34 -51
20z"/>
<path d="M933 994 c-6 -17 15 -37 29 -28 13 9 9 32 -7 38 -9 3 -18 -1 -22 -10z"/>
<path d="M1089 988 c-4 -41 -4 -205 -1 -215 2 -7 10 -13 18 -13 11 0 14 18 14
75 0 60 3 75 15 75 12 0 15 -15 15 -76 0 -66 2 -75 18 -72 14 3 17 14 17 71 0
89 -8 111 -40 105 -21 -4 -24 -1 -27 25 -3 30 -27 51 -29 25z"/>
<path d="M671 973 c-5 -11 -7 -23 -4 -27 3 -3 2 -6 -3 -6 -12 0 -5 -138 7
-162 10 -18 44 -24 53 -10 3 5 -3 15 -12 23 -13 11 -17 28 -16 65 3 67 3 66
13 60 5 -3 11 0 14 8 3 8 -2 16 -15 19 -11 3 -18 10 -15 14 3 5 2 15 -3 22 -6
11 -10 9 -19 -6z"/>
<path d="M1016 983 c-3 -3 -6 -15 -6 -25 0 -10 -5 -18 -11 -18 -6 0 -8 -9 -3
-22 4 -13 7 -48 8 -80 1 -31 6 -62 13 -69 14 -14 45 -8 51 10 3 10 0 12 -12 8
-12 -5 -16 0 -17 16 -4 90 -2 112 8 112 20 0 26 14 9 21 -9 3 -16 14 -16 24 0
20 -13 33 -24 23z"/>
<path d="M330 871 c0 -90 3 -111 14 -111 18 0 26 25 22 64 -3 21 1 30 15 33
23 7 25 30 2 35 -20 4 -25 57 -6 59 30 3 33 4 36 14 1 6 -17 11 -40 13 l-43 3
0 -110z"/>
<path d="M733 963 c3 -10 8 -40 12 -68 17 -131 18 -135 40 -135 8 0 17 15 21
38 3 20 9 51 13 67 7 28 8 26 15 -23 9 -66 15 -82 32 -82 13 0 17 11 29 81 16
103 17 139 2 139 -15 0 -26 -38 -28 -99 l-1 -36 -9 30 c-4 17 -11 47 -14 68
-4 22 -11 37 -20 37 -16 0 -22 -16 -31 -85 -7 -55 -13 -70 -15 -37 -1 12 -3
27 -4 32 -1 6 -3 28 -4 50 -1 33 -4 40 -22 40 -15 0 -19 -5 -16 -17z"/>
<path d="M1220 870 c0 -91 3 -110 15 -110 12 0 15 16 16 78 l1 77 15 -62 c9
-41 19 -63 29 -63 8 0 14 8 15 18 4 90 25 115 24 29 0 -57 3 -72 15 -72 12 0
15 19 16 108 1 105 0 107 -22 107 -20 0 -25 -8 -36 -60 -13 -64 -21 -61 -33
13 -8 40 -13 47 -36 47 -18 0 -19 -8 -19 -110z"/>
<path d="M452 931 c-33 -21 -26 -155 8 -166 28 -9 57 2 63 25 6 23 -19 35 -27
14 -8 -20 -28 -13 -32 10 -2 17 9 25 43 30 14 2 18 11 17 41 -1 48 -35 70 -72
46z m42 -37 c9 -23 8 -24 -14 -24 -11 0 -20 2 -20 4 0 12 13 36 20 36 4 0 11
-7 14 -16z"/>
<path d="M563 933 c-22 -8 -14 -60 12 -91 24 -29 32 -52 19 -52 -4 0 -13 8
-20 18 -11 14 -15 15 -23 3 -13 -21 -2 -40 27 -48 19 -4 30 -1 44 16 20 25 14
46 -25 88 -12 14 -17 28 -13 40 6 14 9 15 16 3 5 -8 6 -18 4 -22 -3 -4 2 -8
10 -8 10 0 16 9 16 24 0 30 -31 44 -67 29z"/>
<path d="M935 928 c-2 -7 -3 -47 -2 -88 2 -59 5 -75 17 -75 12 0 15 17 16 88
2 69 -1 87 -12 87 -8 0 -16 -6 -19 -12z"/>
<path d="M1410 925 c-7 -9 -13 -42 -13 -77 0 -48 4 -64 18 -75 35 -25 75 -9
75 29 0 22 -18 24 -26 3 -11 -27 -36 -17 -32 13 2 22 8 27 31 26 25 -1 27 2
27 35 0 21 -5 42 -12 49 -17 17 -53 15 -68 -3z m50 -35 c0 -11 -7 -20 -15 -20
-8 0 -15 9 -15 20 0 11 7 20 15 20 8 0 15 -9 15 -20z"/>
</g>
</svg>
